<?xml version="1.0" standalone="no"?>
<!DOCTYPE svg PUBLIC "-//W3C//DTD SVG 20010904//EN"
 "http://www.w3.org/TR/2001/REC-SVG-20010904/DTD/svg10.dtd">
<svg version="1.0" xmlns="http://www.w3.org/2000/svg"
 width="1241.000000pt" height="1241.000000pt" viewBox="0 0 1241.000000 1241.000000"
 preserveAspectRatio="xMidYMid meet">
<metadata>
Created by potrace 1.11, written by Peter Selinger 2001-2013
</metadata>
<g transform="translate(0.000000,1241.000000) scale(0.100000,-0.100000)"
fill="#000000" stroke="none">
<path d="M985 12360 c3 -5 -4 -12 -17 -15 -13 -2 -54 -12 -93 -20 -348 -77
-655 -356 -785 -713 -25 -69 -47 -160 -65 -266 -2 -16 -9 -34 -15 -40 -16 -16
-14 -1866 3 -1866 10 0 13 -751 14 -4017 1 -2210 2 -4103 3 -4208 2 -278 28
-432 102 -594 99 -217 303 -423 535 -540 l81 -41 5458 0 5457 0 86 46 c131 71
179 106 285 204 89 84 170 193 223 300 61 126 88 211 119 385 4 22 8 1941 9
4265 1 2828 5 4233 12 4250 12 28 11 1774 0 1825 -4 17 -9 44 -12 60 -74 442
-367 788 -788 929 -42 14 -96 29 -119 32 -24 4 -53 13 -65 20 -19 12 -816 14
-5228 14 -3363 0 -5204 -3 -5200 -10z"/>
</g>
</svg>
